<svg width="59" height="46" viewBox="0 0 59 46" fill="none" xmlns="http://www.w3.org/2000/svg">
<mask id="path-1-inside-1_424_30" fill="white">
<rect x="16.6163" y="0.0909424" width="41.4052" height="26.9638" rx="0.728751"/>
</mask>
<rect x="16.6163" y="0.0909424" width="41.4052" height="26.9638" rx="0.728751" stroke="white" stroke-width="4.37251" mask="url(#path-1-inside-1_424_30)"/>
<path d="M13.6587 10.2935H10.3209C9.91844 10.2935 9.59216 10.6197 9.59216 11.0222V35.4354C9.59216 35.8378 9.91844 36.1641 10.3209 36.1641H49.5292C49.9317 36.1641 50.2579 35.8378 50.2579 35.4354V30.3341" stroke="white" stroke-width="2.18625"/>
<path d="M5.89537 19.0385H2.55755C2.15507 19.0385 1.8288 19.3647 1.8288 19.7672V44.1804C1.8288 44.5828 2.15507 44.9091 2.55755 44.9091H41.7658C42.1683 44.9091 42.4946 44.5828 42.4946 44.1804V39.0791" stroke="white" stroke-width="2.18625"/>
</svg>
